<?xml version="1.0"?>
<svg xmlns:rdf="http://www.w3.org/1999/02/22-rdf-syntax-ns#" xmlns="http://www.w3.org/2000/svg" xmlns:cc="http://creativecommons.org/ns#" xmlns:xlink="http://www.w3.org/1999/xlink" xmlns:dc="http://purl.org/dc/elements/1.1/" xmlns:svg="http://www.w3.org/2000/svg" id="svg2845" viewBox="0 0 180 180" version="1.0">
  <defs id="defs2847">
    <linearGradient id="linearGradient4893" y2="44.969" xlink:href="#linearGradient4860" gradientUnits="userSpaceOnUse" x2="-148.62" gradientTransform="matrix(.48946 .46015 -.46015 .48946 327.33 161.06)" y1="44.969" x1="-179.62"/>
    <linearGradient id="linearGradient4891" y2="104" xlink:href="#linearGradient4860" gradientUnits="userSpaceOnUse" x2="-47.868" y1="104" x1="-59.56"/>
    <linearGradient id="linearGradient4860">
      <stop id="stop4862" stop-color="#965529" offset="0"/>
      <stop id="stop4864" stop-color="#351e0e" offset="1"/>
    </linearGradient>
  </defs>
  <g id="layer1" transform="translate(176.1 -59.114)">
    <rect id="rect2160" transform="translate(-176.1 59.114)" rx="8.907" ry="8.907" height="174.02" width="174.02" stroke="#4d4d4d" y="2.9904" x="2.9904" stroke-width="1.0479" fill="#ccf"/>
  </g>
  <g id="layer2">
    <path id="path4335" stroke-linejoin="round" d="m42.642 28.506c-2.527 0.233-4.5 2.19-4.5 4.556v113.89c0 2.53 2.23 4.56 5 4.56h89.998c2.77 0 5-2.03 5-4.56v-95.089l-23.44-23.355h-71.558c-0.173 0-0.331-0.015-0.5 0z" stroke="#000" stroke-width="1.5" fill="#fff"/>
    <path id="path4337" stroke-linejoin="round" d="m114.75 28.493v18.375c0 2.77 2.23 5 5 5h18.41l-23.41-23.375z" stroke="#000" stroke-width="1.5" fill="#fff"/>
    <path id="path2557" d="m48.685 52.207h56.175" stroke="#000" stroke-width="3" fill="none"/>
    <path id="use2559" d="m48.685 62.207h76.175" stroke="#000" stroke-width="3" fill="none"/>
    <use id="use2569" xlink:href="#use2559" transform="translate(1.700142e-6,10)" height="180" width="180" y="0" x="0"/>
    <use id="use2571" xlink:href="#use2559" transform="translate(1.700142e-6,20)" height="180" width="180" y="0" x="0"/>
    <use id="use2573" xlink:href="#use2559" transform="translate(1.700142e-6,30)" height="180" width="180" y="0" x="0"/>
    <use id="use2575" xlink:href="#use2559" transform="translate(1.700142e-6,40)" height="180" width="180" y="0" x="0"/>
    <use id="use2577" xlink:href="#use2559" transform="translate(1.700142e-6,50)" height="180" width="180" y="0" x="0"/>
    <path id="path4053" stroke-linejoin="round" d="m127 131a16 16 0 1 1 -32 0 16 16 0 1 1 32 0z" transform="matrix(.79847 0 0 .79847 20.866 27.976)" stroke="#008000" stroke-width="2.5048" fill="none"/>
    <path id="use4057" stroke-linejoin="round" d="m102.45 130.82c0.27 0.49 0.02 0.02 0.36 0.68 0.09 0.18 0.2 0.35 0.28 0.54 0.36 0.78 0.61 1.62 0.88 2.43 0.21 0.46 0.47 1.73 0.86 2.07 0.09 0.08 0.24 0.11 0.35 0.07 0.18-0.05 0.65-0.32 0.47-0.32-0.32 0.01-0.6 0.22-0.9 0.33 1.92-1.64 3.84-3.29 5.92-4.73 1.34-0.92 2.1-1.35 3.49-2.17 3.36-1.9 1.93-1.14 4.25-2.34l-1.38 1.11c-1.29 0.65-0.79 0.56-1.38 0.65-1.36 0.8-2.22 1.28-3.54 2.18-1.99 1.37-3.82 2.96-5.6 4.59-0.81 0.55-1.6 1.13-2.44 1.64-0.19 0.12-0.4 0.22-0.62 0.22-0.38-0.01-0.55-0.55-0.64-0.78-0.21-0.52-0.31-1.07-0.52-1.59-0.43-1.22-0.86-2.48-1.7-3.49l1.86-1.09z" stroke="#008000" fill="#008000"/>
    <g id="g4884" stroke-linejoin="round" stroke="#000" transform="translate(-80.557 -5.2087)">
      <path id="path4855" d="m-48 104a5.7143 2.8571 0 1 1 -11.429 0 5.7143 2.8571 0 1 1 11.429 0z" stroke-width=".26359" fill="url(#linearGradient4891)" transform="matrix(1.8644 1.7527 -1.7387 1.8494 484.79 33.256)"/>
      <path id="path4839" d="m-48 104a5.7143 2.8571 0 1 1 -11.429 0 5.7143 2.8571 0 1 1 11.429 0z" stroke-width=".26359" fill="url(#linearGradient4891)" transform="matrix(1.8644 1.7527 -1.7387 1.8494 486.37 31.571)"/>
      <path id="rect4850" d="m248.84 83.582c-4.06-3.81-13.53-0.323-21.15 7.782-4.3 4.57-7.1 9.636-7.99 13.866l-18.09 19.24c-0.1 0.07-0.19 0.13-0.26 0.22-1.26 1.33-0.16 4.4 2.42 6.83s5.7 3.32 6.95 1.98c0.03-0.02 0.06-0.06 0.09-0.09l18.27-19.44c4.16-1.17 9.02-4.26 13.29-8.8 7.62-8.107 10.52-17.778 6.47-21.588z" stroke-width=".6718" fill="url(#linearGradient4893)"/>
    </g>
  </g>
  <metadata>
    <rdf:RDF>
      <cc:Work>
        <dc:format>image/svg+xml</dc:format>
        <dc:type rdf:resource="http://purl.org/dc/dcmitype/StillImage"/>
        <cc:license rdf:resource="http://creativecommons.org/licenses/publicdomain/"/>
        <dc:publisher>
          <cc:Agent rdf:about="http://openclipart.org/">
            <dc:title>Openclipart</dc:title>
          </cc:Agent>
        </dc:publisher>
        <dc:title>Passed icon</dc:title>
        <dc:date>2008-12-01T15:01:17</dc:date>
        <dc:description>Passed icon Originally developed for www.studenti.unige.it</dc:description>
        <dc:source>http://openclipart.org/detail/20500/passed-icon-by-cod_fsfe</dc:source>
        <dc:creator>
          <cc:Agent>
            <dc:title>CoD_fsfe</dc:title>
          </cc:Agent>
        </dc:creator>
        <dc:subject>
          <rdf:Bag>
            <rdf:li>clip art</rdf:li>
            <rdf:li>clipart</rdf:li>
            <rdf:li>color</rdf:li>
            <rdf:li>icon</rdf:li>
            <rdf:li>image</rdf:li>
            <rdf:li>inkscape</rdf:li>
            <rdf:li>media</rdf:li>
            <rdf:li>office</rdf:li>
            <rdf:li>passed</rdf:li>
            <rdf:li>png</rdf:li>
            <rdf:li>public domain</rdf:li>
            <rdf:li>svg</rdf:li>
            <rdf:li>web</rdf:li>
            <rdf:li>webdesign</rdf:li>
          </rdf:Bag>
        </dc:subject>
      </cc:Work>
      <cc:License rdf:about="http://creativecommons.org/licenses/publicdomain/">
        <cc:permits rdf:resource="http://creativecommons.org/ns#Reproduction"/>
        <cc:permits rdf:resource="http://creativecommons.org/ns#Distribution"/>
        <cc:permits rdf:resource="http://creativecommons.org/ns#DerivativeWorks"/>
      </cc:License>
    </rdf:RDF>
  </metadata>
</svg>
